<?xml version="1.0" encoding="iso-8859-1"?>
<!-- Generator: Adobe Illustrator 21.0.0, SVG Export Plug-In . SVG Version: 6.00 Build 0)  -->
<svg version="1.1" id="Capa_1" xmlns="http://www.w3.org/2000/svg" xmlns:xlink="http://www.w3.org/1999/xlink" x="0px" y="0px"
	 viewBox="0 0 1104 1104" style="enable-background:new 0 0 1104 1104;" xml:space="preserve">
<g>
	<g id="smartphone-mobile-flashlight">
		
			<linearGradient id="SVGID_1_" gradientUnits="userSpaceOnUse" x1="552" y1="1126.5272" x2="552" y2="-51.0728" gradientTransform="matrix(1 0 0 -1 0 1102)">
			<stop  offset="0" style="stop-color:#FFF33B"/>
			<stop  offset="0.014" style="stop-color:#FEE72E"/>
			<stop  offset="0.042" style="stop-color:#FED51B"/>
			<stop  offset="0.07" style="stop-color:#FDCA10"/>
			<stop  offset="0.1" style="stop-color:#FDC70C"/>
			<stop  offset="0.4" style="stop-color:#F3903F"/>
			<stop  offset="0.8" style="stop-color:#ED683C"/>
			<stop  offset="1" style="stop-color:#E93E3A"/>
		</linearGradient>
		<path style="fill:url(#SVGID_1_);" d="M791.2,0H312.8c-40.648,0-73.6,32.952-73.6,73.6V1012c0.061,50.785,41.215,91.939,92,92
			h441.6c50.785-0.061,91.939-41.215,92-92V73.6C864.8,32.952,831.848,0,791.2,0z M312.8,36.8h478.4c20.324,0,36.8,16.476,36.8,36.8
			v36.8H276V73.6C276,53.276,292.476,36.8,312.8,36.8z M828,147.2v809.6H276V147.2H828z M772.8,1067.2H331.2
			c-30.486,0-55.2-24.714-55.2-55.2v-18.4h552v18.4C828,1042.486,803.286,1067.2,772.8,1067.2z"/>
		
			<linearGradient id="SVGID_2_" gradientUnits="userSpaceOnUse" x1="552" y1="1126.5272" x2="552" y2="-51.0728" gradientTransform="matrix(1 0 0 -1 0 1102)">
			<stop  offset="0" style="stop-color:#FFF33B"/>
			<stop  offset="0.014" style="stop-color:#FEE72E"/>
			<stop  offset="0.042" style="stop-color:#FED51B"/>
			<stop  offset="0.07" style="stop-color:#FDCA10"/>
			<stop  offset="0.1" style="stop-color:#FDC70C"/>
			<stop  offset="0.4" style="stop-color:#F3903F"/>
			<stop  offset="0.8" style="stop-color:#ED683C"/>
			<stop  offset="1" style="stop-color:#E93E3A"/>
		</linearGradient>
		<rect x="515.2" y="1012" style="fill:url(#SVGID_2_);" width="73.6" height="36.8"/>
		
			<linearGradient id="SVGID_3_" gradientUnits="userSpaceOnUse" x1="552.046" y1="1126.5272" x2="552.046" y2="-51.0728" gradientTransform="matrix(1 0 0 -1 0 1102)">
			<stop  offset="0" style="stop-color:#FFF33B"/>
			<stop  offset="0.014" style="stop-color:#FEE72E"/>
			<stop  offset="0.042" style="stop-color:#FED51B"/>
			<stop  offset="0.07" style="stop-color:#FDCA10"/>
			<stop  offset="0.1" style="stop-color:#FDC70C"/>
			<stop  offset="0.4" style="stop-color:#F3903F"/>
			<stop  offset="0.8" style="stop-color:#ED683C"/>
			<stop  offset="1" style="stop-color:#E93E3A"/>
		</linearGradient>
		<path style="fill:url(#SVGID_3_);" d="M423.329,423.881c0.079,1.931,0.464,3.838,1.141,5.649c0.166,0.405,0.258,0.81,0.423,1.214
			s0.129,0.46,0.239,0.681L496.8,574.742V864.8c0,10.162,8.238,18.4,18.4,18.4h73.6c10.162,0,18.4-8.238,18.4-18.4V574.742
			l71.76-143.318c0.11-0.221,0.129-0.46,0.239-0.681c0.11-0.221,0.258-0.81,0.423-1.214c0.679-1.817,1.064-3.73,1.141-5.667
			c0-0.221,0.129-0.423,0.129-0.662v-73.6c0-10.162-8.238-18.4-18.4-18.4H441.6c-10.162,0-18.4,8.238-18.4,18.4v73.6
			C423.2,423.439,423.329,423.642,423.329,423.881z M572.369,562.175c-1.286,2.552-1.96,5.368-1.969,8.225v276h-36.8v-276
			c0.003-2.854-0.659-5.67-1.932-8.225L471.371,441.6h161.258L572.369,562.175z M460,368h184v36.8H460V368z"/>
		
			<linearGradient id="SVGID_4_" gradientUnits="userSpaceOnUse" x1="552" y1="1126.5272" x2="552" y2="-51.0728" gradientTransform="matrix(1 0 0 -1 0 1102)">
			<stop  offset="0" style="stop-color:#FFF33B"/>
			<stop  offset="0.014" style="stop-color:#FEE72E"/>
			<stop  offset="0.042" style="stop-color:#FED51B"/>
			<stop  offset="0.07" style="stop-color:#FDCA10"/>
			<stop  offset="0.1" style="stop-color:#FDC70C"/>
			<stop  offset="0.4" style="stop-color:#F3903F"/>
			<stop  offset="0.8" style="stop-color:#ED683C"/>
			<stop  offset="1" style="stop-color:#E93E3A"/>
		</linearGradient>
		<path style="fill:url(#SVGID_4_);" d="M552,294.4c10.162,0,18.4-8.238,18.4-18.4v-36.8c0-10.162-8.238-18.4-18.4-18.4
			s-18.4,8.238-18.4,18.4V276C533.6,286.162,541.838,294.4,552,294.4z"/>
		
			<linearGradient id="SVGID_5_" gradientUnits="userSpaceOnUse" x1="478.4" y1="1126.5272" x2="478.4" y2="-51.0728" gradientTransform="matrix(1 0 0 -1 0 1102)">
			<stop  offset="0" style="stop-color:#FFF33B"/>
			<stop  offset="0.014" style="stop-color:#FEE72E"/>
			<stop  offset="0.042" style="stop-color:#FED51B"/>
			<stop  offset="0.07" style="stop-color:#FDCA10"/>
			<stop  offset="0.1" style="stop-color:#FDC70C"/>
			<stop  offset="0.4" style="stop-color:#F3903F"/>
			<stop  offset="0.8" style="stop-color:#ED683C"/>
			<stop  offset="1" style="stop-color:#E93E3A"/>
		</linearGradient>
		<path style="fill:url(#SVGID_5_);" d="M478.4,294.4c10.162,0,18.4-8.238,18.4-18.4v-36.8c0-10.162-8.238-18.4-18.4-18.4
			c-10.162,0-18.4,8.238-18.4,18.4V276C460,286.162,468.238,294.4,478.4,294.4z"/>
		
			<linearGradient id="SVGID_6_" gradientUnits="userSpaceOnUse" x1="625.6" y1="1126.5272" x2="625.6" y2="-51.0728" gradientTransform="matrix(1 0 0 -1 0 1102)">
			<stop  offset="0" style="stop-color:#FFF33B"/>
			<stop  offset="0.014" style="stop-color:#FEE72E"/>
			<stop  offset="0.042" style="stop-color:#FED51B"/>
			<stop  offset="0.07" style="stop-color:#FDCA10"/>
			<stop  offset="0.1" style="stop-color:#FDC70C"/>
			<stop  offset="0.4" style="stop-color:#F3903F"/>
			<stop  offset="0.8" style="stop-color:#ED683C"/>
			<stop  offset="1" style="stop-color:#E93E3A"/>
		</linearGradient>
		<path style="fill:url(#SVGID_6_);" d="M625.6,294.4c10.162,0,18.4-8.238,18.4-18.4v-36.8c0-10.162-8.238-18.4-18.4-18.4
			c-10.162,0-18.4,8.238-18.4,18.4V276C607.2,286.162,615.438,294.4,625.6,294.4z"/>
	</g>
</g>
<g>
</g>
<g>
</g>
<g>
</g>
<g>
</g>
<g>
</g>
<g>
</g>
<g>
</g>
<g>
</g>
<g>
</g>
<g>
</g>
<g>
</g>
<g>
</g>
<g>
</g>
<g>
</g>
<g>
</g>
</svg>
