<svg height="512" viewBox="0 0 64 64" width="512" xmlns="http://www.w3.org/2000/svg" xmlns:xlink="http://www.w3.org/1999/xlink"><linearGradient id="New_Gradient_Swatch_1" gradientUnits="userSpaceOnUse" x1="32" x2="32" y1="-2.742" y2="66.525"><stop offset="0" stop-color="#fff33b"/><stop offset=".014" stop-color="#fee72e"/><stop offset=".042" stop-color="#fed51b"/><stop offset=".07" stop-color="#fdca10"/><stop offset=".1" stop-color="#fdc70c"/><stop offset=".4" stop-color="#f3903f"/><stop offset=".8" stop-color="#ed683c"/><stop offset="1" stop-color="#e93e3a"/></linearGradient><linearGradient id="New_Gradient_Swatch_1-4" x1="14" x2="14" xlink:href="#New_Gradient_Swatch_1" y1="-2.742" y2="66.525"/><linearGradient id="New_Gradient_Swatch_1-5" x1="20" x2="20" xlink:href="#New_Gradient_Swatch_1" y1="-2.742" y2="66.525"/><linearGradient id="New_Gradient_Swatch_1-6" x1="26" x2="26" xlink:href="#New_Gradient_Swatch_1" y1="-2.742" y2="66.525"/><linearGradient id="New_Gradient_Swatch_1-7" x1="38" x2="38" xlink:href="#New_Gradient_Swatch_1" y1="-2.742" y2="66.525"/><linearGradient id="New_Gradient_Swatch_1-8" x1="44" x2="44" xlink:href="#New_Gradient_Swatch_1" y1="-2.742" y2="66.525"/><linearGradient id="New_Gradient_Swatch_1-9" x1="50" x2="50" xlink:href="#New_Gradient_Swatch_1" y1="-2.742" y2="66.525"/><linearGradient id="New_Gradient_Swatch_1-18" x1="24.777" x2="24.777" xlink:href="#New_Gradient_Swatch_1" y1="-2.742" y2="66.525"/><linearGradient id="New_Gradient_Swatch_1-19" x1="39.223" x2="39.223" xlink:href="#New_Gradient_Swatch_1" y1="-2.742" y2="66.525"/><linearGradient id="New_Gradient_Swatch_1-20" gradientTransform="matrix(.196 .981 -.981 .196 42.388 -17.715)" x1="32" x2="32" xlink:href="#New_Gradient_Swatch_1" y1="-2.742" y2="66.525"/><g id="data-program-code-computer-laptop"><g fill="url(#New_Gradient_Swatch_1)"><path d="m61.27 58.21-5.27-19.34v-27.87a3.009 3.009 0 0 0 -3-3h-9.03a14.94 14.94 0 0 0 -23.94 0h-9.03a3.009 3.009 0 0 0 -3 3v27.87l-5.27 19.34a2.989 2.989 0 0 0 2.89 3.79h52.76a2.989 2.989 0 0 0 2.89-3.79zm-29.27-54.21a13 13 0 1 1 -13 13 13.012 13.012 0 0 1 13-13zm-22 7a1 1 0 0 1 1-1h7.74a15 15 0 1 0 26.52 0h7.74a1 1 0 0 1 1 1v27h-44zm49.18 48.61a.99.99 0 0 1 -.8.39h-52.76a.99.99 0 0 1 -.8-.39 1.02 1.02 0 0 1 -.17-.88l5.11-18.73h44.48l5.11 18.73a1.02 1.02 0 0 1 -.17.88z"/><path d="m40.97 52.758a1 1 0 0 0 -.97-.758h-16a1 1 0 0 0 -.97.758l-1 4a1 1 0 0 0 .97 1.242h18a1 1 0 0 0 .97-1.242zm-16.689 3.242.5-2h14.438l.5 2z"/><path d="m27 34h10v2h-10z"/></g><path d="m12 42h4v2h-4z" fill="url(#New_Gradient_Swatch_1-4)"/><path d="m18 42h4v2h-4z" fill="url(#New_Gradient_Swatch_1-5)"/><path d="m24 42h4v2h-4z" fill="url(#New_Gradient_Swatch_1-6)"/><path d="m36 42h4v2h-4z" fill="url(#New_Gradient_Swatch_1-7)"/><path d="m42 42h4v2h-4z" fill="url(#New_Gradient_Swatch_1-8)"/><path d="m48 42h4v2h-4z" fill="url(#New_Gradient_Swatch_1-9)"/><path d="m30 42h4v2h-4z" fill="url(#New_Gradient_Swatch_1)"/><path d="m12 46h4v2h-4z" fill="url(#New_Gradient_Swatch_1-4)"/><path d="m18 46h4v2h-4z" fill="url(#New_Gradient_Swatch_1-5)"/><path d="m24 46h4v2h-4z" fill="url(#New_Gradient_Swatch_1-6)"/><path d="m36 46h4v2h-4z" fill="url(#New_Gradient_Swatch_1-7)"/><path d="m42 46h4v2h-4z" fill="url(#New_Gradient_Swatch_1-8)"/><path d="m48 46h4v2h-4z" fill="url(#New_Gradient_Swatch_1-9)"/><path d="m30 46h4v2h-4z" fill="url(#New_Gradient_Swatch_1)"/><path d="m21.445 17.832 6 4 1.11-1.664-4.755-3.168 4.752-3.168-1.11-1.664-6 4a1 1 0 0 0 0 1.664z" fill="url(#New_Gradient_Swatch_1-18)"/><path d="m36.555 21.832 6-4a1 1 0 0 0 0-1.664l-6-4-1.11 1.664 4.755 3.168-4.752 3.168z" fill="url(#New_Gradient_Swatch_1-19)"/><path d="m26.901 16h10.198v2h-10.198z" fill="url(#New_Gradient_Swatch_1-20)" transform="matrix(.196 -.981 .981 .196 9.049 45.04)"/></g></svg>